<?xml version="1.0" standalone="no"?>
<!DOCTYPE svg PUBLIC "-//W3C//DTD SVG 20010904//EN"
 "http://www.w3.org/TR/2001/REC-SVG-20010904/DTD/svg10.dtd">
<svg version="1.0" xmlns="http://www.w3.org/2000/svg"
 width="545.000000pt" height="545.000000pt" viewBox="0 0 545.000000 545.000000"
 preserveAspectRatio="xMidYMid meet">
<metadata>
Created by potrace 1.14, written by Peter Selinger 2001-2017
</metadata>
<g transform="translate(0.000000,545.000000) scale(0.100000,-0.100000)"
fill="#000000" stroke="none">
<path d="M575 4172 c-4 -4 -14 -7 -23 -7 -9 -1 -39 -5 -67 -10 -27 -5 -53 -9
-57 -9 -3 -1 -10 -4 -14 -8 -4 -5 -16 -8 -26 -8 -51 0 -205 -124 -223 -179 -3
-11 -10 -21 -15 -21 -4 0 -11 -15 -14 -32 -3 -18 -13 -45 -21 -61 -8 -15 -17
-53 -21 -85 -11 -87 -12 -97 -14 -97 -12 0 -21 -1841 -9 -1907 3 -15 8 -30 12
-34 4 -4 7 -18 7 -30 0 -26 39 -114 55 -126 6 -4 6 -8 1 -8 -19 0 122 -128
162 -145 23 -10 42 -22 42 -27 0 -4 3 -7 8 -7 17 3 72 -14 72 -23 0 -5 4 -7 9
-4 5 4 21 2 35 -3 33 -13 121 -21 231 -22 78 -1 113 2 195 14 8 2 21 6 28 10
6 5 12 6 12 3 0 -3 20 3 44 14 24 10 47 16 50 13 3 -4 6 -1 6 6 0 7 5 9 10 6
6 -3 10 -2 10 4 0 10 38 27 53 23 4 -1 7 5 7 13 0 8 6 15 13 15 14 0 52 39 88
90 13 19 27 37 31 40 4 3 18 41 33 84 21 64 27 99 28 183 0 57 4 102 8 101 4
-2 59 -52 121 -113 63 -60 134 -126 157 -145 24 -19 51 -42 60 -50 19 -17 32
-27 132 -96 65 -44 102 -67 185 -112 57 -31 188 -80 244 -91 33 -7 289 -6 315
1 11 3 27 8 35 11 36 14 86 27 93 24 5 -1 13 6 18 16 6 9 15 17 22 17 18 1 72
53 112 109 19 28 32 51 29 51 -4 0 1 11 9 24 17 25 24 50 34 121 3 22 9 45 13
50 3 6 6 27 4 48 -1 22 3 37 10 37 6 0 4 5 -4 10 -11 7 -11 10 -2 10 7 0 11 4
7 9 -3 5 -1 12 4 15 5 3 23 -13 40 -36 44 -60 145 -161 211 -211 30 -23 64
-50 75 -60 11 -10 30 -20 42 -23 13 -4 23 -10 23 -14 0 -5 51 -33 113 -63 104
-51 250 -102 322 -112 17 -2 53 -7 80 -11 28 -4 61 -9 75 -10 14 -1 25 -3 25
-4 0 -2 20 -4 45 -5 25 -2 45 -4 45 -5 0 -10 637 -14 770 -5 106 7 105 7 105
15 0 3 14 7 31 8 75 6 237 92 294 157 40 46 65 80 65 89 0 5 6 17 14 25 16 19
62 151 70 203 3 21 10 56 15 78 10 46 12 740 1 740 -4 0 -7 6 -7 13 0 57 -112
199 -169 213 -13 3 -24 10 -24 16 0 5 -5 6 -10 3 -6 -4 -17 -2 -23 4 -32 26
-295 43 -412 27 -27 -3 -68 -9 -90 -11 -39 -5 -75 -12 -85 -15 -3 -1 -8 -2
-12 -1 -5 0 -8 -4 -8 -9 0 -6 -7 -10 -15 -10 -20 0 -85 -45 -118 -83 -44 -49
-76 -126 -81 -193 -2 -32 -5 -59 -6 -59 -1 0 -3 -22 -5 -49 -2 -27 -8 -53 -12
-57 -16 -16 -180 -26 -238 -15 -16 4 -43 9 -60 12 -35 8 -123 50 -143 70 -7 8
-17 14 -22 14 -5 0 -12 9 -15 20 -3 11 -13 20 -21 20 -8 0 -14 5 -14 10 0 6
-10 32 -22 58 -19 39 -23 64 -23 143 1 84 4 101 29 152 19 38 42 65 70 83 78
52 130 57 616 59 448 2 560 7 608 27 31 13 27 12 70 22 17 4 32 11 32 16 0 7
37 23 51 21 22 -2 139 161 139 194 1 21 14 65 19 65 8 0 7 377 -1 400 -2 8
-10 34 -17 57 -41 146 -193 274 -341 288 -9 0 -20 4 -25 7 -23 14 -192 20
-553 19 -418 -1 -531 -6 -637 -25 -11 -2 -42 -7 -68 -10 -26 -4 -59 -11 -72
-16 -14 -5 -25 -7 -25 -4 0 4 -6 2 -12 -4 -7 -5 -33 -13 -58 -17 -25 -4 -49
-11 -55 -15 -5 -4 -34 -15 -62 -24 -29 -10 -55 -21 -58 -26 -3 -4 -21 -11 -40
-14 -19 -4 -35 -11 -35 -15 0 -5 -15 -15 -32 -22 -71 -29 -188 -117 -279 -210
-69 -70 -99 -94 -103 -84 -3 8 0 15 7 15 8 0 8 3 2 8 -6 4 -10 14 -10 22 1 24
-30 121 -52 165 -37 71 -180 205 -219 205 -6 0 -25 7 -43 16 -17 9 -46 18 -64
21 -18 3 -36 6 -42 7 -5 1 -15 4 -20 8 -6 3 -50 9 -99 13 -49 3 -92 6 -95 7
-3 0 -8 0 -11 -2 -3 -1 -32 -3 -65 -5 -32 -3 -66 -7 -75 -11 -8 -3 -28 -8 -45
-11 -40 -6 -91 -22 -123 -39 -15 -8 -32 -14 -38 -14 -7 0 -14 -7 -18 -15 -3
-8 -11 -15 -19 -15 -20 0 -89 -69 -122 -122 -17 -27 -34 -48 -38 -48 -5 0 -6
-4 -3 -9 3 -5 -1 -25 -9 -45 -8 -20 -13 -36 -10 -36 2 0 0 -12 -7 -27 -6 -16
-12 -74 -13 -130 -1 -57 -4 -105 -7 -108 -2 -3 -53 42 -112 99 -172 166 -453
386 -493 386 -7 0 -13 4 -13 9 0 5 -15 14 -32 22 -18 7 -35 16 -38 20 -7 9
-155 68 -182 71 -13 2 -28 6 -34 10 -5 4 -44 10 -85 13 -40 4 -79 8 -86 10 -6
2 -14 1 -18 -3z m-40 -290 c-6 -5 -26 -15 -45 -22 -49 -19 -65 -35 -89 -89
-37 -86 -42 -248 -39 -1166 2 -473 6 -869 11 -880 4 -11 0 -4 -9 15 -15 32
-17 116 -16 895 0 473 3 894 6 935 16 196 47 266 131 299 58 23 62 24 50 13z
m42 2 c-3 -3 -12 -4 -19 -1 -8 3 -5 6 6 6 11 1 17 -2 13 -5z m46 -1 c-7 -2
-19 -2 -25 0 -7 3 -2 5 12 5 14 0 19 -2 13 -5z m101 -9 c26 -9 45 -18 43 -20
-2 -2 -28 5 -58 15 -30 11 -49 20 -43 20 6 1 32 -6 58 -15z m1441 -10 c-22 -7
-49 -12 -60 -12 -11 0 -1 5 22 11 23 7 45 15 49 19 4 4 12 4 18 1 6 -4 -7 -13
-29 -19z m158 19 c-7 -2 -19 -2 -25 0 -7 3 -2 5 12 5 14 0 19 -2 13 -5z m110
-6 c9 -1 17 -5 17 -9 0 -4 10 -8 23 -9 12 0 17 -3 10 -5 -6 -3 -36 2 -67 11
-58 17 -77 30 -28 19 15 -3 35 -6 45 -7z m1547 3 c0 -5 -21 -9 -47 -8 l-48 1
45 7 c25 4 46 8 48 8 1 1 2 -2 2 -8z m37 4 c-3 -3 -12 -4 -19 -1 -8 3 -5 6 6
6 11 1 17 -2 13 -5z m40 0 c-3 -3 -12 -4 -19 -1 -8 3 -5 6 6 6 11 1 17 -2 13
-5z m80 0 c-3 -3 -12 -4 -19 -1 -8 3 -5 6 6 6 11 1 17 -2 13 -5z m76 -1 c-7
-2 -19 -2 -25 0 -7 3 -2 5 12 5 14 0 19 -2 13 -5z m44 1 c-3 -3 -12 -4 -19 -1
-8 3 -5 6 6 6 11 1 17 -2 13 -5z m76 -1 c-7 -2 -19 -2 -25 0 -7 3 -2 5 12 5
14 0 19 -2 13 -5z m44 1 c-3 -3 -12 -4 -19 -1 -8 3 -5 6 6 6 11 1 17 -2 13 -5z
m40 0 c-3 -3 -12 -4 -19 -1 -8 3 -5 6 6 6 11 1 17 -2 13 -5z m91 -1 c-10 -2
-28 -2 -40 0 -13 2 -5 4 17 4 22 1 32 -1 23 -4z m80 0 c-10 -2 -28 -2 -40 0
-13 2 -5 4 17 4 22 1 32 -1 23 -4z m80 0 c-10 -2 -28 -2 -40 0 -13 2 -5 4 17
4 22 1 32 -1 23 -4z m80 0 c-10 -2 -28 -2 -40 0 -13 2 -5 4 17 4 22 1 32 -1
23 -4z m49 1 c-3 -3 -12 -4 -19 -1 -8 3 -5 6 6 6 11 1 17 -2 13 -5z m56 -1
c-7 -2 -21 -2 -30 0 -10 3 -4 5 12 5 17 0 24 -2 18 -5z m77 -3 c0 -5 -7 -7
-15 -4 -8 4 -15 8 -15 10 0 2 7 4 15 4 8 0 15 -4 15 -10z m-1067 -11 c-6 -6
-30 -12 -54 -15 l-44 -3 44 9 c24 5 46 12 49 15 3 3 8 5 11 5 3 0 0 -5 -6 -11z
m1145 -9 c10 0 28 -10 42 -21 l25 -21 -25 15 c-14 8 -40 18 -59 22 -24 5 -30
10 -20 16 8 5 15 4 17 -1 2 -6 11 -10 20 -10z m-2961 -34 c-20 -12 -42 -31
-48 -43 -7 -13 -16 -23 -21 -23 -16 0 29 55 56 70 14 7 26 17 26 22 0 5 5 6
12 2 7 -5 -2 -15 -25 -28z m-1178 -12 c2 -2 -3 -4 -11 -4 -9 0 -26 9 -39 20
l-24 21 35 -17 c19 -9 37 -18 39 -20z m1689 0 c24 -20 49 -52 57 -72 17 -39
27 -115 15 -107 -4 2 -10 24 -12 48 -7 62 -27 96 -76 134 -24 18 -40 33 -35
33 5 0 28 -16 51 -36z m1179 30 c-3 -3 -12 -4 -19 -1 -8 3 -5 6 6 6 11 1 17
-2 13 -5z m-66 -20 c-18 -8 -41 -13 -50 -11 -10 2 -3 8 19 14 51 16 70 14 31
-3z m-2666 -93 c50 -34 196 -151 226 -180 9 -9 44 -41 78 -71 73 -65 192 -185
204 -206 5 -8 -34 28 -86 80 -135 136 -335 307 -449 383 -54 36 -98 67 -98 69
0 5 68 -35 125 -75z m2585 74 c0 -6 -32 -19 -70 -29 -14 -3 -7 3 15 13 42 21
55 24 55 16z m1516 -66 c8 -29 12 -55 9 -57 -2 -2 -7 9 -10 24 -4 16 -13 47
-21 68 -8 24 -9 35 -3 29 6 -6 18 -35 25 -64z m-1631 18 c-36 -24 -110 -59
-98 -46 14 14 93 57 108 58 5 1 1 -5 -10 -12z m-1503 -280 l-3 -274 48 -54
c26 -30 39 -47 28 -39 -11 8 -27 24 -36 35 -9 11 -26 30 -37 43 -19 21 -20 36
-18 280 1 217 6 282 19 282 1 0 1 -123 -1 -273z m1383 215 c-6 -4 -32 -26 -60
-47 -62 -48 -127 -118 -157 -168 -13 -21 -31 -48 -41 -60 l-18 -22 12 25 c41
84 167 223 245 268 22 13 32 15 19 4z m1762 -64 c-3 -8 -6 -5 -6 6 -1 11 2 17
5 13 3 -3 4 -12 1 -19z m0 -40 c-3 -8 -6 -5 -6 6 -1 11 2 17 5 13 3 -3 4 -12
1 -19z m-2480 -20 c-3 -8 -6 -5 -6 6 -1 11 2 17 5 13 3 -3 4 -12 1 -19z m2472
-90 c-4 -24 -8 -46 -9 -50 0 -5 -4 -8 -9 -8 -8 0 -6 14 15 88 8 30 11 8 3 -30z
m-54 -103 c-17 -13 -37 -24 -45 -24 -10 0 -8 3 5 9 11 4 29 17 40 28 11 11 22
18 25 15 2 -2 -9 -15 -25 -28z m-2413 2 c3 -13 1 -32 -2 -43 -5 -13 -8 -5 -8
24 -1 47 3 54 10 19z m428 -26 c-6 -12 -16 -21 -23 -21 -8 0 -9 2 -1 8 6 4 15
18 19 32 5 14 10 20 12 13 2 -7 -1 -21 -7 -32z m-2050 -12 c93 -20 190 -87
219 -149 12 -24 11 -24 -4 -5 -63 81 -129 124 -215 144 -47 10 -156 6 -173 -6
-22 -16 -67 -33 -67 -25 0 8 55 32 100 43 39 10 91 9 140 -2z m3969 7 c-2 -2
-17 -6 -34 -10 -22 -5 -26 -4 -15 4 14 9 59 15 49 6z m-72 -13 c-4 -3 -215 -7
-469 -8 -255 -1 -479 -5 -498 -10 -19 -4 -32 -4 -27 1 4 4 37 11 75 14 87 9
927 12 919 3z m-1042 -30 c-11 -2 -37 -11 -57 -19 -21 -7 -38 -11 -38 -8 0 10
65 33 90 32 20 0 21 -1 5 -5z m-3111 -18 c-4 -8 -11 -15 -16 -15 -6 0 -5 6 2
15 7 8 14 15 16 15 2 0 1 -7 -2 -15z m2266 -42 c-11 -17 -11 -17 -6 0 3 10 7
26 7 35 1 15 2 15 6 0 2 -10 -1 -25 -7 -35z m-2305 8 c-3 -6 -16 -16 -28 -22
-21 -11 -21 -10 2 15 23 25 40 29 26 7z m3034 16 c-2 -2 -17 -11 -34 -21 l-30
-17 24 20 c13 12 28 21 34 21 6 0 8 -1 6 -3z m-2160 -79 c19 -24 20 -28 5 -18
-10 7 -30 26 -43 42 -19 24 -20 28 -5 18 10 -7 30 -26 43 -42z m2065 17 c-15
-14 -31 -25 -36 -25 -11 0 44 49 55 50 4 0 -4 -11 -19 -25z m-644 -1 c0 -8 -5
-12 -10 -9 -6 4 -8 11 -5 16 9 14 15 11 15 -7z m-2340 -3 c0 -5 -7 -12 -16
-15 -14 -5 -15 -4 -4 9 14 17 20 19 20 6z m2327 -53 c-3 -7 -5 -2 -5 12 0 14
2 19 5 13 2 -7 2 -19 0 -25z m-2366 -1 c-10 -9 -11 -8 -5 6 3 10 9 15 12 12 3
-3 0 -11 -7 -18z m641 -24 c27 -60 40 -125 35 -173 l-4 -45 -1 51 c-2 51 -35
168 -54 192 -6 7 -6 12 -1 12 5 0 17 -17 25 -37z m1355 5 c-3 -7 -5 -2 -5 12
0 14 2 19 5 13 2 -7 2 -19 0 -25z m968 22 c-3 -5 -11 -10 -16 -10 -6 0 -7 5
-4 10 3 6 11 10 16 10 6 0 7 -4 4 -10z m-1940 -27 l18 -28 -29 25 c-16 14 -31
26 -33 28 -2 1 3 2 11 2 9 0 24 -12 33 -27z m-1033 -1 c-7 -5 -16 -28 -21 -53
-6 -30 -9 -36 -10 -17 -1 36 15 78 31 78 11 0 11 -2 0 -8z m2931 -16 c-10 -13
-20 -22 -22 -20 -4 4 29 44 36 44 2 0 -4 -11 -14 -24z m-566 -18 c-3 -7 -5 -2
-5 12 0 14 2 19 5 13 2 -7 2 -19 0 -25z m-360 0 c-3 -8 -6 -5 -6 6 -1 11 2 17
5 13 3 -3 4 -12 1 -19z m-552 -18 c16 -17 16 -20 3 -15 -9 4 -19 13 -22 21 -7
19 -2 18 19 -6z m-1079 -38 c18 -27 37 -105 24 -97 -4 3 -10 22 -14 43 -3 23
-17 50 -33 66 -14 15 -19 24 -10 21 9 -4 24 -19 33 -33z m2517 3 c-9 -19 -18
-33 -21 -31 -4 5 26 66 33 66 3 0 -3 -16 -12 -35z m-2593 22 c0 -2 -9 -14 -20
-27 -11 -13 -20 -18 -20 -12 0 6 7 18 16 26 15 15 24 20 24 13z m1237 -91 c32
-40 65 -84 73 -96 8 -12 23 -33 33 -46 10 -13 15 -24 10 -23 -4 0 -44 49 -87
110 -44 60 -83 109 -88 109 -4 0 -8 5 -8 10 0 18 8 11 67 -64z m823 57 c0 -5
-5 -15 -10 -23 -7 -12 -9 -10 -7 8 1 19 17 33 17 15z m500 -70 c-11 -17 -11
-17 -6 0 3 10 6 24 7 30 0 9 2 9 5 0 3 -7 0 -20 -6 -30z m-513 -20 c-3 -10 -5
-2 -5 17 0 19 2 27 5 18 2 -10 2 -26 0 -35z m-2047 -48 c0 -8 70 -107 93 -132
11 -13 16 -23 11 -23 -5 0 -34 36 -64 80 -30 44 -59 86 -65 93 -5 7 -11 21
-13 32 -2 14 3 10 17 -13 12 -18 21 -35 21 -37z m1715 55 c3 -5 1 -10 -4 -10
-6 0 -11 5 -11 10 0 6 2 10 4 10 3 0 8 -4 11 -10z m-2006 -118 c22 -55 48
-101 66 -115 6 -5 4 -7 -5 -5 -22 6 -92 153 -96 202 -3 41 -3 41 5 6 4 -19 18
-59 30 -88z m1998 76 c-3 -8 -6 -5 -6 6 -1 11 2 17 5 13 3 -3 4 -12 1 -19z
m836 -18 c-3 -12 -8 -19 -11 -16 -5 6 5 36 12 36 2 0 2 -9 -1 -20z m-2156 -32
c-3 -8 -6 -5 -6 6 -1 11 2 17 5 13 3 -3 4 -12 1 -19z m0 -50 c-3 -7 -5 -2 -5
12 0 14 2 19 5 13 2 -7 2 -19 0 -25z m2144 -46 c1 -34 -1 -65 -4 -69 -4 -3 -7
27 -7 67 0 88 9 90 11 2z m-1122 -41 c0 -14 -1 -14 -6 -1 -3 8 -14 26 -24 39
-11 13 -19 28 -19 34 0 6 11 -4 25 -23 14 -19 25 -41 24 -49z m298 17 c-3 -7
-5 -2 -5 12 0 14 2 19 5 13 2 -7 2 -19 0 -25z m-1320 0 c-3 -8 -6 -5 -6 6 -1
11 2 17 5 13 3 -3 4 -12 1 -19z m677 -3 c22 -33 20 -43 -2 -14 l-19 22 -6 -39
c-6 -42 6 -184 17 -203 4 -6 3 -11 -2 -11 -15 0 -30 90 -30 182 0 95 10 111
42 63z m-677 -47 c-3 -7 -5 -2 -5 12 0 14 2 19 5 13 2 -7 2 -19 0 -25z m1320
10 c-3 -8 -6 -5 -6 6 -1 11 2 17 5 13 3 -3 4 -12 1 -19z m-1872 -69 c50 -70
35 -60 -22 14 -26 34 -40 56 -30 48 9 -7 33 -35 52 -62z m1298 7 c15 -27 26
-51 23 -53 -2 -3 -14 13 -25 35 -11 22 -28 48 -38 58 -13 12 -13 16 -3 12 8
-2 27 -26 43 -52z m307 -10 c0 -12 -5 -7 -19 24 -11 24 -11 24 3 6 9 -11 16
-24 16 -30z m2659 18 c2 -2 -72 -3 -165 -2 -121 1 -148 3 -94 7 79 6 251 3
259 -5z m-3712 -26 c-3 -8 -6 -5 -6 6 -1 11 2 17 5 13 3 -3 4 -12 1 -19z
m1660 0 c-3 -8 -6 -5 -6 6 -1 11 2 17 5 13 3 -3 4 -12 1 -19z m497 6 c3 -8 2
-12 -4 -9 -6 3 -10 10 -10 16 0 14 7 11 14 -7z m1206 11 c0 -3 -16 -11 -35
-19 -33 -14 -35 -17 -36 -68 -1 -29 -5 -66 -9 -83 -9 -31 -3 89 5 132 5 22 75
58 75 38z m407 -17 c24 -27 36 -58 23 -58 -6 0 -10 8 -10 17 0 10 -12 27 -27
40 -16 12 -23 22 -17 23 6 0 20 -10 31 -22z m-2710 -40 c-3 -7 -5 -2 -5 12 0
14 2 19 5 13 2 -7 2 -19 0 -25z m-1060 -10 c-3 -7 -5 -2 -5 12 0 14 2 19 5 13
2 -7 2 -19 0 -25z m1660 10 c-3 -8 -6 -5 -6 6 -1 11 2 17 5 13 3 -3 4 -12 1
-19z m524 -33 c9 -25 14 -45 10 -45 -4 0 -15 23 -24 51 -19 61 -10 57 14 -6z
m-2637 -50 c31 -41 55 -75 52 -75 -5 0 -98 116 -110 138 -20 33 7 4 58 -63z
m1220 -26 c-9 -10 -22 -19 -28 -19 -6 0 0 7 12 16 17 11 22 26 24 62 l1 47 4
-44 c3 -31 -1 -48 -13 -62z m906 76 c0 -8 -4 -15 -8 -15 -5 0 -9 7 -9 15 0 8
4 15 9 15 4 0 8 -7 8 -15z m-1304 -30 c0 -14 -3 -25 -8 -25 -4 0 -7 13 -6 30
3 34 12 30 14 -5z m3431 3 c-3 -7 -5 -2 -5 12 0 14 2 19 5 13 2 -7 2 -19 0
-25z m-2480 -20 c-3 -7 -5 -2 -5 12 0 14 2 19 5 13 2 -7 2 -19 0 -25z m-1320
0 c-3 -8 -6 -5 -6 6 -1 11 2 17 5 13 3 -3 4 -12 1 -19z m1680 -20 c-3 -8 -6
-5 -6 6 -1 11 2 17 5 13 3 -3 4 -12 1 -19z m2120 -60 c-2 -18 -4 -6 -4 27 0
33 2 48 4 33 2 -15 2 -42 0 -60z m-2752 -15 c-9 -15 -13 -19 -9 -8 4 11 10 38
13 60 5 39 6 39 9 8 2 -18 -4 -45 -13 -60z m1180 45 c25 -51 115 -145 176
-184 79 -49 86 -56 29 -27 -63 31 -183 148 -218 211 -12 23 -19 42 -15 42 4 0
17 -19 28 -42z m-2228 0 c-3 -7 -5 -2 -5 12 0 14 2 19 5 13 2 -7 2 -19 0 -25z
m388 -14 c12 -69 65 -148 132 -199 25 -19 42 -35 37 -35 -19 1 -89 62 -121
107 -43 61 -91 185 -64 169 5 -3 12 -22 16 -42z m321 19 c-6 -6 -36 9 -36 18
0 5 9 4 20 -3 10 -7 18 -14 16 -15z m611 5 c-3 -8 -6 -5 -6 6 -1 11 2 17 5 13
3 -3 4 -12 1 -19z m375 -43 c3 -13 2 -22 -2 -20 -4 3 -10 16 -12 30 -3 13 -2
22 2 20 4 -3 10 -16 12 -30z m-2054 -41 c7 -13 16 -24 22 -24 5 0 10 -5 10
-12 0 -7 12 -25 28 -42 15 -17 19 -24 9 -16 -28 21 -110 131 -94 124 8 -3 19
-16 25 -30z m3629 14 c-3 -8 -6 -5 -6 6 -1 11 2 17 5 13 3 -3 4 -12 1 -19z
m-3155 -129 c37 -42 68 -81 68 -85 0 -5 -7 0 -16 11 -8 11 -32 38 -52 60 -53
56 -122 141 -122 150 0 3 12 -8 27 -27 15 -18 58 -67 95 -109z m3685 -21 c-2
-29 -3 -8 -3 47 0 55 1 79 3 53 2 -26 2 -71 0 -100z m-2087 122 c0 -5 -2 -10
-4 -10 -3 0 -8 5 -11 10 -3 6 -1 10 4 10 6 0 11 -4 11 -10z m1541 -13 c-10 -9
-11 -8 -5 6 3 10 9 15 12 12 3 -3 0 -11 -7 -18z m-1534 -39 c-3 -7 -5 -2 -5
12 0 14 2 19 5 13 2 -7 2 -19 0 -25z m-726 -25 c-12 -14 -40 -40 -64 -57 -40
-29 -40 -28 13 25 59 59 85 76 51 32z m2231 -13 c-16 -26 -87 -90 -100 -90 -3
0 16 18 41 40 25 23 49 50 52 60 4 11 10 20 16 20 5 0 1 -13 -9 -30z m-1905
-12 c-3 -7 -5 -2 -5 12 0 14 2 19 5 13 2 -7 2 -19 0 -25z m427 -14 c3 -8 2
-12 -4 -9 -6 3 -10 10 -10 16 0 14 7 11 14 -7z m-427 -26 c-3 -8 -6 -5 -6 6
-1 11 2 17 5 13 3 -3 4 -12 1 -19z m-727 -23 c11 -13 10 -14 -4 -9 -9 3 -16
10 -16 15 0 13 6 11 20 -6z m280 -5 c-24 -15 -36 -11 -14 4 10 8 21 12 24 10
2 -3 -2 -9 -10 -14z m1688 -1 c42 -16 22 -18 -23 -2 -25 8 -45 17 -45 20 0 4
25 -2 68 -18z m-1888 -22 l35 -4 -36 -1 c-24 -1 -41 4 -50 16 -12 15 -12 15 1
5 8 -6 31 -13 50 -16z m150 3 c-8 -6 -28 -9 -45 -8 l-30 1 30 4 c17 3 34 9 39
14 5 5 12 6 15 3 3 -3 -1 -9 -9 -14z m980 -45 c0 -5 -9 5 -20 23 -26 42 -26
56 0 17 11 -16 20 -34 20 -40z m-1362 -193 c35 -29 78 -67 95 -84 27 -26 24
-25 -18 7 -27 22 -61 49 -75 62 -14 12 -38 34 -55 48 -54 48 -195 189 -195
195 0 4 42 -34 93 -84 50 -51 120 -115 155 -144z m2179 232 c-3 -3 -12 -4 -19
-1 -8 3 -5 6 6 6 11 1 17 -2 13 -5z m38 -4 c3 -5 1 -10 -4 -10 -6 0 -11 5 -11
10 0 6 2 10 4 10 3 0 8 -4 11 -10z m400 0 c-3 -5 -12 -10 -18 -10 -7 0 -6 4 3
10 19 12 23 12 15 0z m-341 -8 c3 -5 -1 -9 -9 -9 -8 0 -12 4 -9 9 3 4 7 8 9 8
2 0 6 -4 9 -8z m301 -2 c-3 -5 -16 -10 -28 -9 -20 1 -20 2 3 9 14 4 26 8 28 9
2 1 0 -3 -3 -9z m782 -12 c-3 -8 -6 -5 -6 6 -1 11 2 17 5 13 3 -3 4 -12 1 -19z
m-847 0 c0 -5 -49 -8 -110 -8 -60 0 -110 3 -110 8 0 4 50 7 110 7 61 0 110 -3
110 -7z m-1111 -77 c0 -14 -1 -14 -6 -1 -3 8 -13 24 -22 35 -16 20 -16 20 7 1
12 -11 22 -26 21 -35z m1956 -3 c-2 -7 -6 -46 -9 -86 -3 -41 -11 -81 -17 -90
-8 -14 -9 -12 -5 10 4 15 9 56 12 90 6 67 10 88 18 88 3 0 4 -6 1 -12z m-1921
-47 c-6 -6 -24 19 -24 34 1 6 7 1 15 -9 8 -11 12 -22 9 -25z m60 -53 c22 -24
66 -65 96 -92 l55 -48 -60 46 c-60 45 -153 136 -140 136 4 0 26 -19 49 -42z
m-621 -50 c-3 -40 -9 -86 -14 -103 l-9 -30 5 34 c3 18 5 64 5 102 0 38 4 69 8
69 5 0 7 -33 5 -72z m2444 -80 c-3 -8 -6 -5 -6 6 -1 11 2 17 5 13 3 -3 4 -12
1 -19z m-3102 -64 c73 -50 161 -95 235 -119 30 -10 59 -21 64 -26 11 -9 -61
12 -124 37 -68 27 -260 145 -260 160 0 6 9 1 85 -52z m1460 46 c3 -5 34 -25
68 -45 34 -20 51 -33 39 -30 -13 4 -45 21 -70 38 -59 38 -69 47 -55 47 7 0 14
-4 18 -10z m-2405 -36 c-16 -72 -72 -122 -169 -151 -66 -19 -39 -1 32 22 49
17 68 29 94 64 20 25 33 54 33 72 0 16 4 29 9 29 5 0 5 -15 1 -36z m4025 -2
c-15 -16 -16 -15 -4 12 7 15 15 23 17 16 3 -7 -3 -19 -13 -28z m-2444 -29 c-8
-15 -10 -15 -11 -2 0 17 10 32 18 25 2 -3 -1 -13 -7 -23z m2422 -9 c-6 -17
-91 -84 -106 -84 -5 0 7 12 28 26 21 14 47 37 57 50 22 28 30 31 21 8z m-1367
-47 c4 -4 -14 0 -39 9 -26 9 -49 20 -52 24 -6 9 80 -22 91 -33z m-1080 -9
c-19 -27 -21 -19 -4 18 7 14 14 21 16 15 2 -6 -4 -21 -12 -33z m-2161 1 c11
-9 47 -26 80 -37 33 -12 52 -21 43 -21 -30 -2 -121 40 -148 66 -27 28 -9 22
25 -8z m3343 -24 c-6 -6 -88 19 -88 26 0 4 20 1 46 -8 25 -8 44 -17 42 -18z
m-1219 -10 c-8 -8 -30 -20 -48 -25 -41 -11 -34 -3 17 21 47 22 50 22 31 4z
m1291 5 c11 -7 5 -8 -20 -4 -43 8 -51 14 -19 14 13 0 31 -5 39 -10z m168 -16
c40 -4 75 -11 79 -17 3 -6 2 -8 -3 -5 -5 3 -45 9 -89 12 -91 7 -125 13 -134
22 -3 4 12 4 34 1 22 -4 73 -9 113 -13z m891 6 c-20 -11 -103 -31 -94 -22 6 7
81 29 100 31 6 0 3 -4 -6 -9z m-4296 -27 c-7 -2 -19 -2 -25 0 -7 3 -2 5 12 5
14 0 19 -2 13 -5z m150 0 c-23 -2 -64 -2 -90 0 -26 2 -7 3 42 3 50 0 71 -1 48
-3z m1670 0 c-23 -2 -64 -2 -90 0 -26 2 -7 3 42 3 50 0 71 -1 48 -3z m1775 0
c-10 -2 -26 -2 -35 0 -10 3 -2 5 17 5 19 0 27 -2 18 -5z m425 0 c-72 -2 -194
-2 -270 0 -76 1 -16 3 132 3 149 0 211 -2 138 -3z"/>
</g>
</svg>
